<?xml version="1.0" encoding="utf-8"?>
<!-- Generator: Adobe Illustrator 22.0.1, SVG Export Plug-In . SVG Version: 6.00 Build 0)  -->
<svg version="1.1" xmlns="http://www.w3.org/2000/svg" xmlns:xlink="http://www.w3.org/1999/xlink" x="0px" y="0px"
	 viewBox="0 0 600 600" enable-background="new 0 0 600 600" xml:space="preserve">
<g id="Capa_5">
	<radialGradient id="SVGID_1_" cx="303.5" cy="303.5" r="328.0549" gradientUnits="userSpaceOnUse">
		<stop  offset="0.3168" style="stop-color:#FFFFFF"/>
		<stop  offset="0.3587" style="stop-color:#F1F2F2"/>
		<stop  offset="0.6123" style="stop-color:#A2AAAA"/>
		<stop  offset="0.7925" style="stop-color:#707D7D"/>
		<stop  offset="0.8812" style="stop-color:#5D6B6B"/>
	</radialGradient>
	<rect x="-1.5" y="-1.5" fill="url(#SVGID_1_)" width="603" height="603"/>
</g>
<g id="Capa_4">
	<rect x="-100" y="-100" fill="none" width="800" height="800"/>
	<g>
		<defs>
			<rect id="SVGID_2_" x="-3.5" y="-3.5" width="607" height="607"/>
		</defs>
		<clipPath id="SVGID_3_">
			<use xlink:href="#SVGID_2_"  overflow="visible"/>
		</clipPath>
		<g clip-path="url(#SVGID_3_)">
			<polyline fill="none" stroke="#93A3A2" stroke-width="4" stroke-miterlimit="10" points="137.167,161 137.167,21 -45,21 -45,-57 
				-300,-57 			"/>
			<polyline fill="none" stroke="#93A3A2" stroke-width="4" stroke-miterlimit="10" points="416.18,129 416.18,-45 599,-45 
				599,-100 			"/>
			<polyline fill="none" stroke="#93A3A2" stroke-width="4" stroke-miterlimit="10" points="402.68,437 402.68,599 729,599 729,700 
							"/>
			<polyline fill="none" stroke="#93A3A2" stroke-width="4" stroke-miterlimit="10" points="469,397 599,397 599,267.486 
				831,267.486 831,91 900,91 			"/>
			<polyline fill="none" stroke="#93A3A2" stroke-width="4" stroke-miterlimit="10" points="103,300 -3,300 -3,189 -191,189 
				-191,447 -300,447 			"/>
			<polyline fill="none" stroke="#93A3A2" stroke-width="4" stroke-miterlimit="10" points="202.417,458.75 77.921,458.75 
				77.921,583 -17,583 -17,437 -130.931,437 -130.931,615 -300,615 			"/>
			<polyline fill="none" stroke="#93A3A2" stroke-width="4" stroke-miterlimit="10" points="280.25,78.788 280.25,-57 199.595,-57 
				199.595,-100 			"/>
			<polyline fill="none" stroke="#93A3A2" stroke-width="4" stroke-miterlimit="10" points="900,-10.606 729,-10.606 729,78.788 
				553,78.788 553,189 442.59,189 			"/>
			<polyline fill="none" stroke="#93A3A2" stroke-width="4" stroke-miterlimit="10" points="257.997,493 257.997,551 146.167,551 
				146.167,626 			"/>
			<polyline fill="none" stroke="#93A3A2" stroke-width="4" stroke-miterlimit="10" points="453.833,422 453.833,511 655,511 
				655,422 900,422 			"/>
			<polyline fill="none" stroke="#93A3A2" stroke-width="4" stroke-miterlimit="10" points="-300,189 -266.881,189 -266.881,67.602 
				-100,67.602 -100,112.6 93.101,112.6 93.101,230.501 			"/>
			<polyline fill="none" stroke="#93A3A2" stroke-width="4" stroke-miterlimit="10" points="-191,346.25 -130.388,346.25 
				-130.388,189 			"/>
			<polyline fill="none" stroke="#93A3A2" stroke-width="4" stroke-miterlimit="10" points="416.18,67.602 469,67.602 469,-45 			
				"/>
			<line fill="none" stroke="#93A3A2" stroke-width="4" stroke-miterlimit="10" x1="67.602" y1="21" x2="67.602" y2="-100"/>
			<polyline fill="none" stroke="#93A3A2" stroke-width="4" stroke-miterlimit="10" points="281.035,21 337.703,21 337.703,-100 			
				"/>
			<polyline fill="none" stroke="#93A3A2" stroke-width="4" stroke-miterlimit="10" points="-178.386,700 -178.386,658.602 
				33.104,658.602 			"/>
			<line fill="none" stroke="#93A3A2" stroke-width="4" stroke-miterlimit="10" x1="323.688" y1="522.079" x2="323.688" y2="700"/>
			<polyline fill="none" stroke="#93A3A2" stroke-width="4" stroke-miterlimit="10" points="323.688,596.5 238.875,596.5 
				238.875,700 			"/>
			<polyline fill="none" stroke="#93A3A2" stroke-width="4" stroke-miterlimit="10" points="501.08,599 501.08,639.073 599,639.073 
				599,700 			"/>
			
				<line fill="none" stroke="#93A3A2" stroke-width="4" stroke-miterlimit="10" x1="-130.931" y1="540.078" x2="-300" y2="540.078"/>
			<polyline fill="none" stroke="#93A3A2" stroke-width="4" stroke-miterlimit="10" points="-3,248.889 -70.917,248.889 
				-70.917,437 			"/>
			<polyline fill="none" stroke="#93A3A2" stroke-width="4" stroke-miterlimit="10" points="-17,493 39.103,493 39.103,397 
				133.483,395.517 			"/>
			<line fill="none" stroke="#93A3A2" stroke-width="4" stroke-miterlimit="10" x1="33.104" y1="583" x2="33.104" y2="656.542"/>
			<polyline fill="none" stroke="#93A3A2" stroke-width="4" stroke-miterlimit="10" points="55.603,112.6 55.603,212.25 -3,212.25 
							"/>
			<polyline fill="none" stroke="#93A3A2" stroke-width="4" stroke-miterlimit="10" points="-36.958,112.6 -36.958,147.499 
				-266.881,147.499 			"/>
			<polyline fill="none" stroke="#93A3A2" stroke-width="4" stroke-miterlimit="10" points="11.052,21 11.052,67.602 
				137.167,67.602 			"/>
			<polyline fill="none" stroke="#93A3A2" stroke-width="4" stroke-miterlimit="10" points="67.602,-26.893 221.014,-26.893 
				221.014,112.6 			"/>
			<polyline fill="none" stroke="#93A3A2" stroke-width="4" stroke-miterlimit="10" points="372.793,103.6 372.793,-74.891 
				469,-74.891 469,-100 			"/>
			<line fill="none" stroke="#93A3A2" stroke-width="4" stroke-miterlimit="10" x1="537.079" y1="-45" x2="537.079" y2="-100"/>
			<line fill="none" stroke="#93A3A2" stroke-width="4" stroke-miterlimit="10" x1="118.599" y1="-26.893" x2="118.599" y2="-100"/>
			<polyline fill="none" stroke="#93A3A2" stroke-width="4" stroke-miterlimit="10" points="446.833,139.834 516.08,139.834 
				516.08,14.5 648.073,14.5 648.073,-63.447 781.026,-63.447 781.026,-100 			"/>
			<line fill="none" stroke="#93A3A2" stroke-width="4" stroke-miterlimit="10" x1="838.563" y1="-100" x2="838.563" y2="-10.606"/>
			<polyline fill="none" stroke="#93A3A2" stroke-width="4" stroke-miterlimit="10" points="831,189 634.574,189 634.574,78.788 			
				"/>
			
				<line fill="none" stroke="#93A3A2" stroke-width="4" stroke-miterlimit="10" x1="547.04" y1="301.551" x2="547.04" y2="357.338"/>
			<polyline fill="none" stroke="#93A3A2" stroke-width="4" stroke-miterlimit="10" points="495.081,230.458 732.787,230.458 
				732.787,267.486 			"/>
			<line fill="none" stroke="#93A3A2" stroke-width="4" stroke-miterlimit="10" x1="634.574" y1="133.894" x2="831" y2="133.894"/>
			<polyline fill="none" stroke="#93A3A2" stroke-width="4" stroke-miterlimit="10" points="729,41 862.562,41 862.562,89.197 			
				"/>
			<polyline fill="none" stroke="#93A3A2" stroke-width="4" stroke-miterlimit="10" points="831,219.25 862.562,219.25 
				862.562,422.25 			"/>
			<line fill="none" stroke="#93A3A2" stroke-width="4" stroke-miterlimit="10" x1="453.833" y1="477.082" x2="655" y2="477.082"/>
			<polyline fill="none" stroke="#93A3A2" stroke-width="4" stroke-miterlimit="10" points="599,359.5 751.568,359.5 
				751.568,422.25 			"/>
			<line fill="none" stroke="#93A3A2" stroke-width="4" stroke-miterlimit="10" x1="655" y1="267.486" x2="655" y2="359.5"/>
			<polyline fill="none" stroke="#93A3A2" stroke-width="4" stroke-miterlimit="10" points="655,292.75 808,292.75 808,422 			"/>
			<polyline fill="none" stroke="#93A3A2" stroke-width="4" stroke-miterlimit="10" points="401.893,552 369.244,552 369.244,700 
							"/>
			<line fill="none" stroke="#93A3A2" stroke-width="4" stroke-miterlimit="10" x1="453.833" y1="599" x2="453.833" y2="700"/>
			<polyline fill="none" stroke="#93A3A2" stroke-width="4" stroke-miterlimit="10" points="554.417,599 554.417,542 808,542 
				808,462.082 900,462.082 			"/>
			<polyline fill="none" stroke="#93A3A2" stroke-width="4" stroke-miterlimit="10" points="900,583 802,583 802,700 			"/>
			<line fill="none" stroke="#93A3A2" stroke-width="4" stroke-miterlimit="10" x1="729" y1="641.5" x2="802" y2="641.5"/>
			<line fill="none" stroke="#93A3A2" stroke-width="4" stroke-miterlimit="10" x1="663" y1="599.5" x2="663" y2="700"/>
			<polyline fill="none" stroke="#93A3A2" stroke-width="4" stroke-miterlimit="10" points="715,542.041 715,499 808,499 			"/>
			<polyline fill="none" stroke="#93A3A2" stroke-width="4" stroke-miterlimit="10" points="900,626 846.781,626 846.781,700 			"/>
			<line fill="none" stroke="#93A3A2" stroke-width="4" stroke-miterlimit="10" x1="-191" y1="253.986" x2="-300" y2="253.986"/>
			<polyline fill="none" stroke="#93A3A2" stroke-width="4" stroke-miterlimit="10" points="-61,656.542 -61,511 -130.388,511 			
				"/>
			<polyline fill="none" stroke="#93A3A2" stroke-width="4" stroke-miterlimit="10" points="-300,483 -225,483 -225,538.041 			"/>
			<polyline fill="none" stroke="#93A3A2" stroke-width="4" stroke-miterlimit="10" points="-300,289.691 -245.5,289.691 
				-245.5,447 			"/>
			<line fill="none" stroke="#93A3A2" stroke-width="4" stroke-miterlimit="10" x1="-17" y1="355.051" x2="53.062" y2="355.051"/>
			<polyline fill="none" stroke="#93A3A2" stroke-width="4" stroke-miterlimit="10" points="-300,-18 -181,-18 -181,67.602 			"/>
			<polyline fill="none" stroke="#93A3A2" stroke-width="4" stroke-miterlimit="10" points="-181,33 -61,33 -61,112.6 			"/>
			<line fill="none" stroke="#93A3A2" stroke-width="4" stroke-miterlimit="10" x1="-160.694" y1="-57" x2="-160.694" y2="-100"/>
			<line fill="none" stroke="#93A3A2" stroke-width="4" stroke-miterlimit="10" x1="-126" y1="-57" x2="-126" y2="33"/>
			<polyline fill="none" stroke="#93A3A2" stroke-width="4" stroke-miterlimit="10" points="-10,19.917 -10,-45 26.301,-45 
				26.301,-100 			"/>
			<polyline fill="none" stroke="#93A3A2" stroke-width="4" stroke-miterlimit="10" points="204.828,551 204.828,626 146.167,626 
				93.101,626 93.101,700 			"/>
			<line fill="none" stroke="#93A3A2" stroke-width="4" stroke-miterlimit="10" x1="-266.881" y1="579" x2="-187.186" y2="579"/>
			<line fill="none" stroke="#93A3A2" stroke-width="4" stroke-miterlimit="10" x1="-245.5" y1="644" x2="-245.5" y2="679.301"/>
			<line fill="none" stroke="#93A3A2" stroke-width="4" stroke-miterlimit="10" x1="-282" y1="337.449" x2="-282" y2="394.656"/>
			<line fill="none" stroke="#93A3A2" stroke-width="4" stroke-miterlimit="10" x1="-156" y1="390" x2="-108.801" y2="390"/>
			<line fill="none" stroke="#93A3A2" stroke-width="4" stroke-miterlimit="10" x1="-215.466" y1="109" x2="-160.694" y2="109"/>
			<line fill="none" stroke="#93A3A2" stroke-width="4" stroke-miterlimit="10" x1="-272.75" y1="23.301" x2="-225" y2="23.301"/>
			<line fill="none" stroke="#93A3A2" stroke-width="4" stroke-miterlimit="10" x1="281.282" y1="630.273" x2="281.282" y2="673"/>
			<line fill="none" stroke="#93A3A2" stroke-width="4" stroke-miterlimit="10" x1="450" y1="560.801" x2="501.08" y2="560.801"/>
			<line fill="none" stroke="#93A3A2" stroke-width="4" stroke-miterlimit="10" x1="629" y1="574.199" x2="684.5" y2="574.199"/>
			
				<line fill="none" stroke="#93A3A2" stroke-width="4" stroke-miterlimit="10" x1="409.318" y1="647.874" x2="409.318" y2="679.301"/>
			<line fill="none" stroke="#93A3A2" stroke-width="4" stroke-miterlimit="10" x1="594" y1="119.594" x2="594" y2="175.212"/>
			<line fill="none" stroke="#93A3A2" stroke-width="4" stroke-miterlimit="10" x1="693" y1="459.019" x2="751.568" y2="459.019"/>
			<line fill="none" stroke="#93A3A2" stroke-width="4" stroke-miterlimit="10" x1="855.582" y1="499" x2="855.582" y2="543.199"/>
			<line fill="none" stroke="#93A3A2" stroke-width="4" stroke-miterlimit="10" x1="518" y1="436.5" x2="594" y2="436.5"/>
			<line fill="none" stroke="#93A3A2" stroke-width="4" stroke-miterlimit="10" x1="684.5" y1="-10.606" x2="684.5" y2="44.301"/>
			
				<line fill="none" stroke="#93A3A2" stroke-width="4" stroke-miterlimit="10" x1="177.667" y1="19.917" x2="177.667" y2="77.921"/>
			<line fill="none" stroke="#93A3A2" stroke-width="4" stroke-miterlimit="10" x1="110" y1="510.52" x2="168.866" y2="510.52"/>
			
				<line fill="none" stroke="#93A3A2" stroke-width="4" stroke-miterlimit="10" x1="127.977" y1="667.402" x2="186.843" y2="667.402"/>
		</g>
		<g clip-path="url(#SVGID_3_)">
			<circle fill="#93A3A2" cx="-7.147" cy="433.551" r="8.801"/>
			<circle fill="#93A3A2" cx="48.822" cy="489.75" r="8.801"/>
			<circle fill="#93A3A2" cx="-7.147" cy="579.75" r="8.801"/>
			<circle fill="#93A3A2" cx="-121.212" cy="433.75" r="8.801"/>
			<circle fill="#93A3A2" cx="-52.397" cy="507.75" r="8.801"/>
			<circle fill="#93A3A2" cx="-121.212" cy="611.75" r="8.801"/>
			<circle fill="#93A3A2" cx="-168.667" cy="655.352" r="8.801"/>
			<circle fill="#93A3A2" cx="-215.281" cy="480.949" r="8.801"/>
			<circle fill="#93A3A2" cx="-257.162" cy="575.75" r="8.801"/>
			<circle fill="#93A3A2" cx="-177.468" cy="575.75" r="8.801"/>
			<circle fill="#93A3A2" cx="-235.781" cy="637.75" r="8.801"/>
			<circle fill="#93A3A2" cx="-235.781" cy="678.75" r="8.801"/>
			<circle fill="#93A3A2" cx="-181.281" cy="443.75" r="8.801"/>
			<circle fill="#93A3A2" cx="-235.781" cy="286.441" r="8.801"/>
			<circle fill="#93A3A2" cx="-272.281" cy="334.199" r="8.801"/>
			<circle fill="#93A3A2" cx="-272.281" cy="392.75" r="8.801"/>
			<circle fill="#93A3A2" cx="-120.669" cy="343" r="8.801"/>
			<circle fill="#93A3A2" cx="-181.281" cy="185.75" r="8.801"/>
			<circle fill="#93A3A2" cx="-257.162" cy="183.75" r="8.801"/>
			<circle fill="#93A3A2" cx="-257.162" cy="64.352" r="8.801"/>
			<circle fill="#93A3A2" cx="-171.281" cy="-21.25" r="8.801"/>
			<circle fill="#93A3A2" cx="-210.789" cy="20.051" r="8.801"/>
			<circle fill="#93A3A2" cx="-146.789" cy="105.75" r="8.801"/>
			<circle fill="#93A3A2" cx="-210.789" cy="105.75" r="8.801"/>
			<circle fill="#93A3A2" cx="-265.963" cy="20.051" r="8.801"/>
			<circle fill="#93A3A2" cx="-52.397" cy="30.352" r="8.801"/>
			<circle fill="#93A3A2" cx="-90.281" cy="109.35" r="8.801"/>
			<circle fill="#93A3A2" cx="-34.795" cy="-60.25" r="8.801"/>
			<circle fill="#93A3A2" cx="36.02" cy="-48.75" r="8.801"/>
			<circle fill="#93A3A2" cx="146.886" cy="16.667" r="8.801"/>
			<circle fill="#93A3A2" cx="128.318" cy="-30.143" r="8.801"/>
			<circle fill="#93A3A2" cx="230.733" cy="-30.051" r="8.801"/>
			<circle fill="#93A3A2" cx="187.385" cy="11.25" r="8.801"/>
			<circle fill="#93A3A2" cx="187.385" cy="75.538" r="8.801"/>
			<circle fill="#93A3A2" cx="347.421" cy="17.842" r="8.801"/>
			<circle fill="#93A3A2" cx="382.512" cy="-77.852" r="8.801"/>
			<circle fill="#93A3A2" cx="478.719" cy="-81.352" r="8.801"/>
			<circle fill="#93A3A2" cx="478.719" cy="64.352" r="8.801"/>
			<circle fill="#93A3A2" cx="425.899" cy="-48.25" r="8.801"/>
			<circle fill="#93A3A2" cx="608.719" cy="-48.25" r="8.801"/>
			<circle fill="#93A3A2" cx="525.799" cy="11.25" r="8.801"/>
			<circle fill="#93A3A2" cx="656.799" cy="11.25" r="8.801"/>
			<circle fill="#93A3A2" cx="789.751" cy="-66.697" r="8.801"/>
			<circle fill="#93A3A2" cx="656.799" cy="-66.697" r="8.801"/>
			<circle fill="#93A3A2" cx="737.725" cy="-13.856" r="8.801"/>
			<circle fill="#93A3A2" cx="694.219" cy="-19.356" r="8.801"/>
			<circle fill="#93A3A2" cx="694.219" cy="46.551" r="8.801"/>
			<circle fill="#93A3A2" cx="871.288" cy="37.75" r="8.801"/>
			<circle fill="#93A3A2" cx="737.725" cy="75.538" r="8.801"/>
			<circle fill="#93A3A2" cx="562.225" cy="75.538" r="8.801"/>
			<circle fill="#93A3A2" cx="644.292" cy="185.75" r="8.801"/>
			<circle fill="#93A3A2" cx="603.719" cy="109.151" r="8.801"/>
			<circle fill="#93A3A2" cx="603.719" cy="171.962" r="8.801"/>
			<circle fill="#93A3A2" cx="562.225" cy="183.25" r="8.801"/>
			<circle fill="#93A3A2" cx="741.219" cy="227.208" r="8.801"/>
			<circle fill="#93A3A2" cx="608.719" cy="264.236" r="8.801"/>
			<circle fill="#93A3A2" cx="556.759" cy="296.75" r="8.801"/>
			<circle fill="#93A3A2" cx="556.759" cy="356.295" r="8.801"/>
			<circle fill="#93A3A2" cx="463.552" cy="507.75" r="8.801"/>
			<circle fill="#93A3A2" cx="459.719" cy="557.551" r="8.801"/>
			<circle fill="#93A3A2" cx="664.719" cy="507.75" r="8.801"/>
			<circle fill="#93A3A2" cx="564.135" cy="539.949" r="8.801"/>
			<circle fill="#93A3A2" cx="508.635" cy="557.551" r="8.801"/>
			<circle fill="#93A3A2" cx="378.963" cy="548.75" r="8.801"/>
			<circle fill="#93A3A2" cx="248.594" cy="593.25" r="8.801"/>
			<circle fill="#93A3A2" cx="291.001" cy="622.75" r="8.801"/>
			<circle fill="#93A3A2" cx="291.001" cy="676.051" r="8.801"/>
			<circle fill="#93A3A2" cx="412.399" cy="595.75" r="8.801"/>
			<circle fill="#93A3A2" cx="419.037" cy="640.352" r="8.801"/>
			<circle fill="#93A3A2" cx="419.037" cy="681.352" r="8.801"/>
			<circle fill="#93A3A2" cx="510.799" cy="635.823" r="8.801"/>
			<circle fill="#93A3A2" cx="608.719" cy="635.823" r="8.801"/>
			<circle fill="#93A3A2" cx="738.719" cy="596.25" r="8.801"/>
			<circle fill="#93A3A2" cx="817.719" cy="539.25" r="8.801"/>
			<circle fill="#93A3A2" cx="865.301" cy="493.949" r="8.801"/>
			<circle fill="#93A3A2" cx="865.301" cy="542.606" r="8.801"/>
			<circle fill="#93A3A2" cx="817.719" cy="459.657" r="8.801"/>
			<circle fill="#93A3A2" cx="765.719" cy="455.769" r="8.801"/>
			<circle fill="#93A3A2" cx="697.719" cy="455.769" r="8.801"/>
			<circle fill="#93A3A2" cx="724.719" cy="495.75" r="8.801"/>
			<circle fill="#93A3A2" cx="636.719" cy="570.949" r="8.801"/>
			<circle fill="#93A3A2" cx="695.436" cy="570.949" r="8.801"/>
			<circle fill="#93A3A2" cx="811.719" cy="582.917" r="8.801"/>
			<circle fill="#93A3A2" cx="664.719" cy="418.75" r="8.801"/>
			<circle fill="#93A3A2" cx="522.997" cy="433.25" r="8.801"/>
			<circle fill="#93A3A2" cx="606.497" cy="433.25" r="8.801"/>
			<circle fill="#93A3A2" cx="856.5" cy="622.75" r="8.801"/>
			<circle fill="#93A3A2" cx="155.886" cy="547.75" r="8.801"/>
			<circle fill="#93A3A2" cx="119.719" cy="507.27" r="8.801"/>
			<circle fill="#93A3A2" cx="178.585" cy="507.27" r="8.801"/>
			<circle fill="#93A3A2" cx="214.547" cy="622.75" r="8.801"/>
			<circle fill="#93A3A2" cx="196.562" cy="664.152" r="8.801"/>
			<circle fill="#93A3A2" cx="137.696" cy="664.152" r="8.801"/>
			<circle fill="#93A3A2" cx="608.719" cy="392.75" r="8.801"/>
			<circle fill="#93A3A2" cx="761.287" cy="355.25" r="8.801"/>
			<circle fill="#93A3A2" cx="664.719" cy="355.25" r="8.801"/>
			<circle fill="#93A3A2" cx="555.335" cy="472.148" r="8.801"/>
			<circle fill="#93A3A2" cx="-61.198" cy="365.095" r="8.801"/>
			<circle fill="#93A3A2" cx="-146.281" cy="386.75" r="8.801"/>
			<circle fill="#93A3A2" cx="-99.082" cy="386.75" r="8.801"/>
			<circle fill="#93A3A2" cx="-27.239" cy="109.35" r="8.801"/>
			<circle fill="#93A3A2" cx="817.719" cy="289.5" r="8.801"/>
			<circle fill="#93A3A2" cx="872.281" cy="216" r="8.801"/>
			<circle fill="#93A3A2" cx="209.314" cy="-60.25" r="8.801"/>
			<circle fill="#93A3A2" cx="20.866" cy="64.352" r="8.801"/>
			<circle fill="#93A3A2" cx="6.719" cy="185.75" r="8.801"/>
			<circle fill="#93A3A2" cx="102.82" cy="109.35" r="8.801"/>
			<circle fill="#93A3A2" cx="-61.198" cy="245.639" r="8.801"/>
			<circle fill="#93A3A2" cx="6.719" cy="297.887" r="8.801"/>
			<circle fill="#93A3A2" cx="-10.883" cy="351.801" r="8.801"/>
			<circle fill="#93A3A2" cx="62.781" cy="351.801" r="8.801"/>
			<circle fill="#93A3A2" cx="87.64" cy="579.75" r="8.801"/>
			<circle fill="#93A3A2" cx="42.823" cy="655.352" r="8.801"/>
			<circle fill="#93A3A2" cx="87.64" cy="456.407" r="8.801"/>
		</g>
	</g>
</g>
<g id="Capa_1">
	<g>
		<path d="M395.782,321.615v42.33c26.597,3.21,47.273,25.917,47.273,53.364c0,28.469-22.263,51.777-50.285,53.579
			c4.413,7.799,6.978,16.777,6.978,26.36c0,29.639-24.113,53.752-53.752,53.752c-19.068,0-35.807-10.01-45.351-25.022
			C291.1,540.99,274.362,551,255.294,551c-29.64,0-53.755-24.113-53.755-53.752c0-9.45,2.497-18.31,6.797-26.034
			c-27.934-1.894-50.098-25.164-50.098-53.569c0-27.447,20.677-50.154,47.273-53.364v-42.666c0-12.237-6.491-19.59-19.843-22.475
			c-21.95-4.745-34.731-19.095-39.207-25.044c-18.399-24.46-19.288-55.654-2.507-85.788C146.77,111.292,216.57,49,300.638,49
			c84.098,0,153.914,62.328,156.69,139.381c6.947,13.09,22.088,50.026-4.148,85.646c-8.063,10.95-21.261,20.007-36.201,24.847
			l-0.371,0.112C408.75,301.138,395.602,307.029,395.782,321.615z"/>
		<path fill="#FFFFFF" d="M378.981,321.615v95.693c0,5.693,4.629,10.322,10.32,10.322c5.693,0,10.322-4.629,10.322-10.322
			c0-3.355-1.634-6.312-4.122-8.198v-28.19c17.429,2.963,30.754,18.131,30.754,36.388c0,20.377-16.577,36.953-36.954,36.953
			c-19.52,0-35.513-15.227-36.823-34.423v-98.223c0-4.547-3.686-8.233-8.233-8.233h-0.335c-4.547,0-8.233,3.686-8.233,8.233v175.633
			c0,5.69,4.629,10.32,10.32,10.32c5.69,0,10.32-4.629,10.32-10.32c0-3.283-1.57-6.178-3.966-8.07v-28.295
			c17.352,3.026,30.598,18.161,30.598,36.365c0,20.374-16.577,36.951-36.951,36.951c-20.373,0-36.949-16.575-36.951-36.947
			c0-0.001,0-0.003,0-0.003V305.186c0-4.547-3.686-8.233-8.233-8.233h-0.335c-4.547,0-8.233,3.686-8.233,8.233v192.062
			c0,0,0,0.003,0,0.004c-0.002,20.372-16.578,36.947-36.951,36.947c-20.377,0-36.953-16.577-36.953-36.951
			c0-13.709,7.522-25.673,18.64-32.051c0.448-0.236,0.887-0.482,1.327-0.73c3.289-1.711,6.865-2.928,10.637-3.585v28.291
			c-2.4,1.891-3.973,4.789-3.973,8.074c0,5.69,4.629,10.32,10.322,10.32c5.69,0,10.32-4.629,10.32-10.32l0.103-175.633h-0.028
			c0-4.547-3.686-8.233-8.233-8.233h-0.335c-4.547,0-8.233,3.686-8.233,8.233h0.004l-0.079,98.637
			c-0.881,12.524-8.009,23.326-18.3,29.32c-0.484,0.253-0.948,0.536-1.424,0.803c-5.118,2.684-10.927,4.224-17.095,4.224
			c-20.377,0-36.953-16.577-36.953-36.953c0-18.195,13.232-33.323,30.571-36.361v28.263h0.06c-2.417,1.89-4,4.799-4,8.097
			c0,5.693,4.629,10.322,10.322,10.322c5.69,0,10.32-4.629,10.32-10.322v-96.029c0-20.174-12.063-34.35-33.094-38.895
			c-16.43-3.551-25.986-14.278-29.33-18.724c-19.761-26.271-8.87-54.279-0.62-68.635l1.378-2.432l0.043-2.12
			c1.395-68.931,64.176-125.008,139.948-125.008c75.776,0,138.557,56.077,139.951,125.008l0.043,2.12l1.044,1.847
			c4.998,8.827,19.613,39.909-2.021,69.288c-2.842,3.859-11.216,13.392-27.682,18.773
			C391.076,288.629,378.755,303.052,378.981,321.615"/>
		<path fill="#1D1D1B" d="M325.157,234.006c0-16.334,28.516-51.217,59.8-51.217s35.99,54.262,16.057,66.721
			C381.081,261.967,325.157,260.029,325.157,234.006z"/>
		<path fill="#1D1D1B" d="M276.165,234.006c0-16.334-28.516-51.217-59.8-51.217s-35.99,54.262-16.057,66.721
			C220.242,261.967,276.165,260.029,276.165,234.006z"/>
	</g>
</g>
<g id="Capa_2">
</g>
<g id="Capa_3">
	<rect x="130.437" y="169.431" fill="#93A3A2" width="339.421" height="97.457"/>
	
		<rect x="130.437" y="169.431" fill="none" stroke="#2C2C2C" stroke-width="10" stroke-linecap="round" stroke-linejoin="round" stroke-miterlimit="10" width="339.421" height="97.457"/>
	<rect x="165.015" y="201.357" fill="#5D6B6B" width="86.256" height="33.606"/>
	<rect x="349.025" y="201.357" fill="#5D6B6B" width="86.255" height="33.606"/>
	
		<rect x="165.015" y="201.357" fill="none" stroke="#2C2C2C" stroke-width="7" stroke-linecap="round" stroke-linejoin="round" stroke-miterlimit="10" width="86.256" height="33.606"/>
	
		<rect x="349.025" y="201.357" fill="none" stroke="#2C2C2C" stroke-width="7" stroke-linecap="round" stroke-linejoin="round" stroke-miterlimit="10" width="86.255" height="33.606"/>
</g>
</svg>
